<svg xmlns="http://www.w3.org/2000/svg" width="163.36" height="54.95" viewBox="0 0 163.36 54.95"><defs><style>.a,.b{fill-rule:evenodd;}.b{fill:#de4a51;}</style></defs><title>logo-black</title><path class="a" d="M7.3,3.68A3.43,3.43,0,0,0,6.24,1.16a3.36,3.36,0,0,0-2.43-1H0V31q0,4.84,4.07,5.16a54.66,54.66,0,0,0,7.57.11V30.83H9.42c-1.41,0-2.12-.59-2.12-1.78V13.47H8a3.53,3.53,0,0,0,2.54-1A3.4,3.4,0,0,0,11.6,9.89V8.42H7.3Zm26.17,6q-3-2-8.89-2c-3.53,0-6.24.81-8.15,2.42a8.13,8.13,0,0,0-3,5.37h7.09a2.89,2.89,0,0,1,1.69-1.58,8,8,0,0,1,2.65-.42,11.25,11.25,0,0,1,3,.47A2,2,0,0,1,29.55,16q0,2.1-4.65,2.73a16.25,16.25,0,0,0-1.7.27,6.78,6.78,0,0,1-1.27.15,15,15,0,0,0-6.61,2.53c-1.73,1.26-2.59,3.37-2.59,6.31q0,4.74,2.85,6.79a11.17,11.17,0,0,0,6.67,2,42.91,42.91,0,0,0,4.39-.26,13.19,13.19,0,0,0,4.71-1.42A9.32,9.32,0,0,0,35,31.73a12,12,0,0,0,1.54-6.58V15.57A6.77,6.77,0,0,0,33.47,9.68ZM29.66,24.84A6.28,6.28,0,0,1,28,29.47a6.31,6.31,0,0,1-4.66,1.68,4,4,0,0,1-2.75-.84,3.41,3.41,0,0,1-1-2.53,4.23,4.23,0,0,1,.75-2.31A6.25,6.25,0,0,1,23.1,24.1l2.43-.53a19.44,19.44,0,0,0,4.13-1.37ZM53.92,7.68a9.54,9.54,0,0,0-4.66,1.05A8.92,8.92,0,0,0,45.88,12V3.58a3.45,3.45,0,0,0-1.06-2.53,3.45,3.45,0,0,0-2.54-1h-3.6V24.1q0,7.47,4.34,10.1a17.79,17.79,0,0,0,9.42,2.63,17,17,0,0,0,5.34-.89A8.84,8.84,0,0,0,62.07,33q3.18-4.09,3.17-10.62T62.07,11.79A9.84,9.84,0,0,0,53.92,7.68Zm2.43,20.84a5.25,5.25,0,0,1-4.55,2.21,5.18,5.18,0,0,1-4.44-2.21q-1.48-2-1.48-6.42a10.17,10.17,0,0,1,1.58-6A5.39,5.39,0,0,1,52,14a5,5,0,0,1,4.33,2.21,9.55,9.55,0,0,1,1.59,5.89Q57.94,26.32,56.35,28.52ZM87.71,9.68q-3-2-8.89-2c-3.53,0-6.24.81-8.15,2.42a8.17,8.17,0,0,0-3,5.37h7.1a2.89,2.89,0,0,1,1.69-1.58,7.89,7.89,0,0,1,2.64-.42,11.25,11.25,0,0,1,3,.47A2,2,0,0,1,83.79,16q0,2.1-4.66,2.73a16.06,16.06,0,0,0-1.69.27,6.78,6.78,0,0,1-1.27.15,15,15,0,0,0-6.61,2.53C67.83,22.94,67,25.05,67,28c0,3.16,1,5.42,2.86,6.79a11.17,11.17,0,0,0,6.67,2,42.91,42.91,0,0,0,4.39-.26,13.19,13.19,0,0,0,4.71-1.42,9.31,9.31,0,0,0,3.65-3.42,12.08,12.08,0,0,0,1.54-6.58V15.57A6.76,6.76,0,0,0,87.71,9.68ZM83.9,24.84a6.26,6.26,0,0,1-1.7,4.63,6.34,6.34,0,0,1-4.65,1.68,4,4,0,0,1-2.75-.84,3.41,3.41,0,0,1-1-2.53,4.31,4.31,0,0,1,.74-2.31A6.25,6.25,0,0,1,77.3,24.1l2.43-.53A19.59,19.59,0,0,0,83.9,22.2ZM124.69,8.52a16.52,16.52,0,0,0-7.83-.68,11,11,0,0,0-7.09,3.74,11.66,11.66,0,0,0-2.49,4.73,21,21,0,0,0-.79,5.68,23.67,23.67,0,0,0,1,6.69,10.41,10.41,0,0,0,3.18,5.1,12.23,12.23,0,0,0,5.66,2.68,14.55,14.55,0,0,0,7-.15A10.55,10.55,0,0,0,129.77,32a14.75,14.75,0,0,0,1.91-4.1,19.84,19.84,0,0,0,.74-5.79,17.33,17.33,0,0,0-1.8-8.1A10.78,10.78,0,0,0,124.69,8.52Zm-.84,19.79a5.45,5.45,0,0,1-2.91,2.37,5.1,5.1,0,0,1-3.23-.11,4.65,4.65,0,0,1-2.22-1.42q-1.59-1.89-1.8-6.68c-.15-3.19.53-5.6,2-7.21A5.47,5.47,0,0,1,118,14.05a5.2,5.2,0,0,1,3.17,0A5.56,5.56,0,0,1,124,16.52a10.66,10.66,0,0,1,1.21,5.68Q125.12,26.42,123.85,28.31Zm34.92-12.93a6.23,6.23,0,0,1-6.05-6.23v-.4l-.5-.23a16.56,16.56,0,0,0-7.84-.68,11,11,0,0,0-7.09,3.74,11.64,11.64,0,0,0-2.48,4.73A21.08,21.08,0,0,0,134,22a23,23,0,0,0,1,6.69,10.32,10.32,0,0,0,3.17,5.1,12.23,12.23,0,0,0,5.66,2.68,14.55,14.55,0,0,0,7-.15A10.62,10.62,0,0,0,157.32,32a14.72,14.72,0,0,0,1.9-4.1,20.29,20.29,0,0,0,.78-5.8A18.15,18.15,0,0,0,158.77,15.38Zm-7.38,12.93a5.45,5.45,0,0,1-2.91,2.37,5.1,5.1,0,0,1-3.23-.11A4.74,4.74,0,0,1,143,29.15q-1.59-1.89-1.8-6.68c-.14-3.19.53-5.6,2-7.21a5.49,5.49,0,0,1,2.33-1.21,5.2,5.2,0,0,1,3.17,0,5.5,5.5,0,0,1,2.81,2.42,10.58,10.58,0,0,1,1.22,5.68Q152.67,26.43,151.39,28.31ZM101.07,3.68A3.44,3.44,0,0,0,100,1.16a3.37,3.37,0,0,0-2.44-1h-3.8V31q0,4.84,4.08,5.16a54.66,54.66,0,0,0,7.57.11V30.83h-2.23c-1.41,0-2.11-.59-2.11-1.78V13.47h.74a3.53,3.53,0,0,0,2.54-1,3.43,3.43,0,0,0,1.06-2.58V8.42h-4.34Z" transform="translate(0 -0.05)"/><path class="b" d="M159,4.79a4.36,4.36,0,1,1-4.36,4.36h0A4.36,4.36,0,0,1,159,4.79Z" transform="translate(0 -0.05)"/><path d="M57.16,52.15l-.86-2.38H53l-.83,2.38H50.71l3.21-8.6h1.52l3.2,8.6Zm-1.23-3.58-.8-2.34c-.06-.15-.14-.4-.25-.73s-.17-.59-.21-.74a12.27,12.27,0,0,1-.46,1.57l-.78,2.24Z" transform="translate(0 -0.05)"/><path d="M67.23,49.83a2.14,2.14,0,0,1-.83,1.79,3.6,3.6,0,0,1-2.27.65,5.4,5.4,0,0,1-2.38-.45V50.49a6.1,6.1,0,0,0,1.24.44,5.68,5.68,0,0,0,1.23.16,2,2,0,0,0,1.23-.32,1,1,0,0,0,.39-.85,1.08,1.08,0,0,0-.36-.81,5,5,0,0,0-1.5-.8,3.86,3.86,0,0,1-1.65-1.08,2.33,2.33,0,0,1-.48-1.46,2,2,0,0,1,.76-1.69,3.13,3.13,0,0,1,2-.62A5.94,5.94,0,0,1,67.1,44l-.44,1.14a5.33,5.33,0,0,0-2-.48,1.56,1.56,0,0,0-1,.3,1,1,0,0,0-.36.78,1,1,0,0,0,.15.57,1.24,1.24,0,0,0,.46.45,7.28,7.28,0,0,0,1.16.56,6.08,6.08,0,0,1,1.38.73,1.79,1.79,0,0,1,.78,1.78Z" transform="translate(0 -0.05)"/><path d="M74.19,48.9a3.49,3.49,0,0,1-.81,2.48,2.93,2.93,0,0,1-2.27.89,3.14,3.14,0,0,1-1.61-.41,2.71,2.71,0,0,1-1.07-1.18,4.06,4.06,0,0,1-.37-1.78,3.55,3.55,0,0,1,.8-2.46,3,3,0,0,1,2.28-.89,2.88,2.88,0,0,1,2.23.91A3.45,3.45,0,0,1,74.19,48.9Zm-4.72,0c0,1.5.56,2.24,1.66,2.24s1.64-.74,1.64-2.24-.55-2.22-1.65-2.22a1.41,1.41,0,0,0-1.26.57A3,3,0,0,0,69.47,48.9Z" transform="translate(0 -0.05)"/><path d="M80.93,52.15H79.55v-4A1.81,1.81,0,0,0,79.27,47a1,1,0,0,0-.88-.37,1.34,1.34,0,0,0-1.17.52,3,3,0,0,0-.37,1.72v3.23H75.47V45.67h1.08l.19.85h.07a1.76,1.76,0,0,1,.79-.71,2.56,2.56,0,0,1,1.12-.26,2,2,0,0,1,2,1h.09a2,2,0,0,1,.81-.75,2.47,2.47,0,0,1,1.19-.27,2.16,2.16,0,0,1,1.69.59,2.56,2.56,0,0,1,.5,1.81v4.22H83.65v-4A1.75,1.75,0,0,0,83.36,47a1,1,0,0,0-.88-.37,1.35,1.35,0,0,0-1.17.5,2.53,2.53,0,0,0-.38,1.54Z" transform="translate(0 -0.05)"/><path d="M92.39,48.9a3.49,3.49,0,0,1-.81,2.48,2.93,2.93,0,0,1-2.27.89,3.1,3.1,0,0,1-1.6-.41,2.68,2.68,0,0,1-1.08-1.18,4.06,4.06,0,0,1-.37-1.78,3.55,3.55,0,0,1,.81-2.46,3,3,0,0,1,2.28-.89,2.86,2.86,0,0,1,2.22.91A3.45,3.45,0,0,1,92.39,48.9Zm-4.71,0c0,1.5.55,2.24,1.66,2.24S91,50.4,91,48.9s-.56-2.22-1.66-2.22a1.42,1.42,0,0,0-1.25.57A3,3,0,0,0,87.68,48.9Z" transform="translate(0 -0.05)"/><path d="M96.09,51.16a3.73,3.73,0,0,0,1-.16v1a3,3,0,0,1-.59.16,3.81,3.81,0,0,1-.75.07,1.81,1.81,0,0,1-2-2.06v-3.5h-.88v-.6l1-.51.47-1.37h.85v1.44H97v1H95.19V50.1a1,1,0,0,0,.25.74A.87.87,0,0,0,96.09,51.16Z" transform="translate(0 -0.05)"/><path d="M103.84,48.9a3.49,3.49,0,0,1-.81,2.48,2.93,2.93,0,0,1-2.27.89,3.14,3.14,0,0,1-1.61-.41,2.71,2.71,0,0,1-1.07-1.18,4.06,4.06,0,0,1-.37-1.78,3.55,3.55,0,0,1,.8-2.46,3,3,0,0,1,2.28-.89,2.88,2.88,0,0,1,2.23.91A3.45,3.45,0,0,1,103.84,48.9Zm-4.72,0c0,1.5.56,2.24,1.66,2.24s1.64-.74,1.64-2.24-.55-2.22-1.65-2.22a1.41,1.41,0,0,0-1.26.57A3,3,0,0,0,99.12,48.9Z" transform="translate(0 -0.05)"/><path d="M111.73,44.66a2.33,2.33,0,0,0-1.9.86,4.47,4.47,0,0,0,0,4.75,2.37,2.37,0,0,0,1.92.8,4.78,4.78,0,0,0,1-.1c.34-.08.7-.17,1.07-.28v1.2a6.59,6.59,0,0,1-2.29.38,3.67,3.67,0,0,1-2.89-1.14,4.8,4.8,0,0,1-1-3.26,5.37,5.37,0,0,1,.49-2.34A3.44,3.44,0,0,1,109.57,44a4.22,4.22,0,0,1,2.17-.54,5.4,5.4,0,0,1,2.43.55l-.51,1.17a7.17,7.17,0,0,0-.91-.36A3.51,3.51,0,0,0,111.73,44.66Z" transform="translate(0 -0.05)"/><path d="M121,48.9a3.49,3.49,0,0,1-.81,2.48,2.93,2.93,0,0,1-2.27.89,3.1,3.1,0,0,1-1.6-.41,2.68,2.68,0,0,1-1.08-1.18,4.06,4.06,0,0,1-.37-1.78,3.55,3.55,0,0,1,.81-2.46,3,3,0,0,1,2.28-.89,2.86,2.86,0,0,1,2.22.91A3.45,3.45,0,0,1,121,48.9Zm-4.71,0c0,1.5.55,2.24,1.65,2.24s1.64-.74,1.64-2.24-.55-2.22-1.65-2.22a1.39,1.39,0,0,0-1.25.57,3,3,0,0,0-.4,1.65Z" transform="translate(0 -0.05)"/><path d="M127.74,52.15h-1.39v-4a1.81,1.81,0,0,0-.28-1.11,1,1,0,0,0-.88-.37,1.34,1.34,0,0,0-1.17.52,3,3,0,0,0-.37,1.72v3.23h-1.37V45.67h1.07l.2.85h.07a1.73,1.73,0,0,1,.78-.71,2.6,2.6,0,0,1,1.13-.26,2,2,0,0,1,2,1h.09a2,2,0,0,1,.81-.75,2.49,2.49,0,0,1,1.2-.27,2.19,2.19,0,0,1,1.69.59,2.62,2.62,0,0,1,.53,1.79v4.22h-1.38v-4a1.75,1.75,0,0,0-.29-1.11,1,1,0,0,0-.88-.37,1.39,1.39,0,0,0-1.17.5,2.6,2.6,0,0,0-.37,1.54Z" transform="translate(0 -0.05)"/><path d="M136.73,52.27a2.29,2.29,0,0,1-1.91-.89h-.08c.06.55.08.88.08,1V55h-1.37V45.67h1.11c0,.12.1.41.19.87h.07a2.16,2.16,0,0,1,1.94-1,2.27,2.27,0,0,1,1.89.88,4.88,4.88,0,0,1,0,4.95A2.3,2.3,0,0,1,136.73,52.27Zm-.33-5.59a1.44,1.44,0,0,0-1.2.48,2.53,2.53,0,0,0-.38,1.54v.2a3,3,0,0,0,.38,1.71,1.4,1.4,0,0,0,1.22.53,1.24,1.24,0,0,0,1.11-.58,3.14,3.14,0,0,0,.38-1.67,3,3,0,0,0-.38-1.65A1.29,1.29,0,0,0,136.4,46.68Z" transform="translate(0 -0.05)"/><path d="M144.68,52.15l-.28-.9h0a2.91,2.91,0,0,1-1,.81,3,3,0,0,1-1.22.21,1.82,1.82,0,0,1-2-2,1.73,1.73,0,0,1,.74-1.51,4.29,4.29,0,0,1,2.27-.55h1.12v-.34A1.3,1.3,0,0,0,144,47a1.15,1.15,0,0,0-.9-.31,3.37,3.37,0,0,0-1,.15,6.54,6.54,0,0,0-.87.34l-.45-1A4.34,4.34,0,0,1,142,45.7a4.79,4.79,0,0,1,1.19-.15,2.77,2.77,0,0,1,1.86.54,2.15,2.15,0,0,1,.63,1.7v4.36Zm-2.05-.94a1.65,1.65,0,0,0,1.2-.41,1.5,1.5,0,0,0,.46-1.18v-.56h-.84a2.9,2.9,0,0,0-1.41.33,1,1,0,0,0-.44.89.84.84,0,0,0,.26.67,1.08,1.08,0,0,0,.77.26Z" transform="translate(0 -0.05)"/><path d="M153,52.15h-1.4v-4a1.71,1.71,0,0,0-.3-1.12,1.15,1.15,0,0,0-1-.37,1.5,1.5,0,0,0-1.27.52,2.81,2.81,0,0,0-.41,1.72v3.23h-1.38V45.67h1.08l.2.85h.07a1.85,1.85,0,0,1,.83-.71,2.86,2.86,0,0,1,1.19-.26A2.09,2.09,0,0,1,153,47.29a2.29,2.29,0,0,1,0,.64Z" transform="translate(0 -0.05)"/><path d="M153.62,45.67h1.5l1.32,3.68a6.26,6.26,0,0,1,.39,1.47h0A3.34,3.34,0,0,1,157,50c.09-.31.59-1.76,1.49-4.37H160L157.28,53a2.64,2.64,0,0,1-2.52,2,4.41,4.41,0,0,1-.89-.1v-1a3.35,3.35,0,0,0,.71.07,1.45,1.45,0,0,0,1.4-1.16l.24-.61Z" transform="translate(0 -0.05)"/></svg>