<svg xmlns="http://www.w3.org/2000/svg" width="163.32" height="55.04" viewBox="0 0 163.32 55.04"><defs><style>.a,.c{fill:#fff;}.a,.b{fill-rule:evenodd;}.b{fill:#de4a51;}</style></defs><title>logo</title><path class="a" d="M7.3,3.68A3.41,3.41,0,0,0,6.24,1.16a3.34,3.34,0,0,0-2.43-1H0V31q0,4.85,4.07,5.16a55.47,55.47,0,0,0,7.57.11V30.83H9.42c-1.41,0-2.12-.59-2.12-1.78V13.47H8a3.54,3.54,0,0,0,2.54-1,3.39,3.39,0,0,0,1.06-2.58V8.42H7.3Zm26.17,6q-3-2-8.89-2-5.29,0-8.15,2.42a8.12,8.12,0,0,0-3,5.37h7.09a2.86,2.86,0,0,1,1.69-1.58,7.8,7.8,0,0,1,2.65-.42,11.13,11.13,0,0,1,3,.47A2,2,0,0,1,29.55,16q0,2.1-4.65,2.73a16,16,0,0,0-1.7.27,6.46,6.46,0,0,1-1.27.15,15,15,0,0,0-6.61,2.53c-1.73,1.26-2.59,3.37-2.59,6.31q0,4.74,2.85,6.79a11.13,11.13,0,0,0,6.67,2,43.78,43.78,0,0,0,4.39-.26,13.19,13.19,0,0,0,4.71-1.42A9.33,9.33,0,0,0,35,31.73a12,12,0,0,0,1.54-6.58V15.57A6.77,6.77,0,0,0,33.47,9.68ZM29.66,24.84A6.29,6.29,0,0,1,28,29.47a6.34,6.34,0,0,1-4.66,1.68,4,4,0,0,1-2.75-.84,3.4,3.4,0,0,1-1-2.53,4.21,4.21,0,0,1,.75-2.31A6.22,6.22,0,0,1,23.1,24.1l2.43-.53a19.59,19.59,0,0,0,4.13-1.37ZM53.92,7.68a9.53,9.53,0,0,0-4.66,1.05A8.94,8.94,0,0,0,45.88,12V3.58a3.47,3.47,0,0,0-1.06-2.53,3.48,3.48,0,0,0-2.54-1h-3.6V24.1q0,7.47,4.34,10.1a17.77,17.77,0,0,0,9.42,2.63,17.08,17.08,0,0,0,5.34-.89A8.88,8.88,0,0,0,62.07,33q3.18-4.09,3.17-10.62T62.07,11.79A9.86,9.86,0,0,0,53.92,7.68Zm2.43,20.84a5.25,5.25,0,0,1-4.55,2.21,5.17,5.17,0,0,1-4.44-2.21q-1.48-2-1.48-6.42a10.14,10.14,0,0,1,1.58-6A5.38,5.38,0,0,1,52,14a5,5,0,0,1,4.33,2.21,9.57,9.57,0,0,1,1.59,5.89Q57.94,26.32,56.35,28.52ZM87.71,9.68q-3-2-8.89-2-5.29,0-8.15,2.42a8.14,8.14,0,0,0-3,5.37h7.1a2.86,2.86,0,0,1,1.69-1.58,7.74,7.74,0,0,1,2.64-.42,11.14,11.14,0,0,1,3,.47A2,2,0,0,1,83.79,16q0,2.1-4.66,2.73a15.81,15.81,0,0,0-1.69.27,6.54,6.54,0,0,1-1.27.15,15,15,0,0,0-6.61,2.53C67.83,22.94,67,25.05,67,28c0,3.16,1,5.42,2.86,6.79a11.13,11.13,0,0,0,6.67,2,43.78,43.78,0,0,0,4.39-.26,13.19,13.19,0,0,0,4.71-1.42,9.33,9.33,0,0,0,3.65-3.42,12.06,12.06,0,0,0,1.54-6.58V15.57A6.77,6.77,0,0,0,87.71,9.68ZM83.9,24.84a6.25,6.25,0,0,1-1.7,4.63,6.32,6.32,0,0,1-4.65,1.68,4,4,0,0,1-2.75-.84,3.4,3.4,0,0,1-1-2.53,4.28,4.28,0,0,1,.74-2.31,6.33,6.33,0,0,1,2.76-1.37l2.43-.53A19.59,19.59,0,0,0,83.9,22.2ZM124.69,8.52a16.49,16.49,0,0,0-7.83-.68,11,11,0,0,0-7.09,3.74,11.69,11.69,0,0,0-2.49,4.73,21,21,0,0,0-.79,5.68,23.57,23.57,0,0,0,1,6.69,10.42,10.42,0,0,0,3.18,5.1,12.31,12.31,0,0,0,5.66,2.68,14.46,14.46,0,0,0,7-.15A10.54,10.54,0,0,0,129.77,32a14.84,14.84,0,0,0,1.91-4.1,20.07,20.07,0,0,0,.74-5.79,17.34,17.34,0,0,0-1.8-8.1A10.8,10.8,0,0,0,124.69,8.52Zm-.84,19.79a5.46,5.46,0,0,1-2.91,2.37,5.1,5.1,0,0,1-3.23-.11,4.68,4.68,0,0,1-2.22-1.42q-1.59-1.89-1.8-6.68c-.15-3.19.53-5.6,2-7.21A5.44,5.44,0,0,1,118,14.05a5.13,5.13,0,0,1,3.17,0A5.54,5.54,0,0,1,124,16.52a10.66,10.66,0,0,1,1.21,5.68Q125.12,26.42,123.85,28.31Zm34.92-12.93a6.23,6.23,0,0,1-6.05-6.23c0-.13,0-.27,0-.4l-.5-.23a16.53,16.53,0,0,0-7.84-.68,11,11,0,0,0-7.09,3.74,11.68,11.68,0,0,0-2.48,4.73A21,21,0,0,0,134,22a23.22,23.22,0,0,0,1,6.69,10.34,10.34,0,0,0,3.17,5.1,12.31,12.31,0,0,0,5.66,2.68,14.46,14.46,0,0,0,7-.15A10.59,10.59,0,0,0,157.32,32a14.84,14.84,0,0,0,1.9-4.1A20.07,20.07,0,0,0,160,22.1,18.25,18.25,0,0,0,158.77,15.38Zm-7.38,12.93a5.46,5.46,0,0,1-2.91,2.37,5.1,5.1,0,0,1-3.23-.11A4.68,4.68,0,0,1,143,29.15q-1.59-1.89-1.8-6.68c-.14-3.19.53-5.6,2-7.21a5.44,5.44,0,0,1,2.33-1.21,5.13,5.13,0,0,1,3.17,0,5.5,5.5,0,0,1,2.81,2.42,10.65,10.65,0,0,1,1.22,5.68C152.69,25,152.24,27.05,151.39,28.31ZM101.07,3.68A3.45,3.45,0,0,0,100,1.16a3.37,3.37,0,0,0-2.44-1H93.76V31q0,4.85,4.08,5.16a55.45,55.45,0,0,0,7.57.11V30.83h-2.23c-1.41,0-2.11-.59-2.11-1.78V13.47h.74a3.56,3.56,0,0,0,2.54-1,3.42,3.42,0,0,0,1.06-2.58V8.42h-4.34Z" transform="translate(0)"/><path class="b" d="M159,4.79a4.36,4.36,0,1,1-4.36,4.36A4.36,4.36,0,0,1,159,4.79Z" transform="translate(0)"/><path class="c" d="M57.16,52.15l-.86-2.38H53l-.83,2.38H50.71l3.21-8.6h1.52l3.2,8.6Zm-1.23-3.58-.8-2.34c-.06-.15-.14-.4-.25-.73s-.17-.59-.21-.74a12.6,12.6,0,0,1-.46,1.57l-.78,2.24Z" transform="translate(0)"/><path class="c" d="M67.23,49.83a2.13,2.13,0,0,1-.83,1.79,3.6,3.6,0,0,1-2.27.65,5.43,5.43,0,0,1-2.38-.45V50.49a6.28,6.28,0,0,0,1.24.44,5.62,5.62,0,0,0,1.23.16,2,2,0,0,0,1.23-.32,1,1,0,0,0,.39-.85,1.06,1.06,0,0,0-.36-.81,5.3,5.3,0,0,0-1.5-.8,3.87,3.87,0,0,1-1.65-1.08,2.29,2.29,0,0,1-.48-1.46,2,2,0,0,1,.76-1.69,3.16,3.16,0,0,1,2-.62A6,6,0,0,1,67.1,44l-.44,1.14a5.34,5.34,0,0,0-2-.48,1.53,1.53,0,0,0-1,.3,1,1,0,0,0-.36.78,1,1,0,0,0,.15.57,1.32,1.32,0,0,0,.46.45,7.46,7.46,0,0,0,1.16.56,6,6,0,0,1,1.38.73,2.23,2.23,0,0,1,.65.77A2.39,2.39,0,0,1,67.23,49.83Z" transform="translate(0)"/><path class="c" d="M74.19,48.9a3.54,3.54,0,0,1-.81,2.48,2.94,2.94,0,0,1-2.27.89,3.16,3.16,0,0,1-1.61-.41,2.73,2.73,0,0,1-1.07-1.18,4,4,0,0,1-.37-1.78,3.55,3.55,0,0,1,.8-2.46,2.94,2.94,0,0,1,2.28-.89,2.88,2.88,0,0,1,2.23.91A3.48,3.48,0,0,1,74.19,48.9Zm-4.72,0c0,1.5.56,2.24,1.66,2.24s1.64-.74,1.64-2.24-.55-2.22-1.65-2.22a1.42,1.42,0,0,0-1.26.57A3,3,0,0,0,69.47,48.9Z" transform="translate(0)"/><path class="c" d="M80.93,52.15H79.55v-4a1.78,1.78,0,0,0-.28-1.11,1,1,0,0,0-.88-.37,1.34,1.34,0,0,0-1.17.52,3,3,0,0,0-.37,1.72v3.23H75.47V45.67h1.08l.19.85h.07a1.76,1.76,0,0,1,.79-.71,2.46,2.46,0,0,1,1.12-.26,2,2,0,0,1,2,1h.09a2,2,0,0,1,.81-.75,2.54,2.54,0,0,1,1.19-.27,2.16,2.16,0,0,1,1.69.59A2.57,2.57,0,0,1,85,47.93v4.22H83.65v-4a1.78,1.78,0,0,0-.29-1.11,1,1,0,0,0-.88-.37,1.36,1.36,0,0,0-1.17.5,2.57,2.57,0,0,0-.38,1.54Z" transform="translate(0)"/><path class="c" d="M92.39,48.9a3.54,3.54,0,0,1-.81,2.48,2.93,2.93,0,0,1-2.27.89,3.12,3.12,0,0,1-1.6-.41,2.69,2.69,0,0,1-1.08-1.18,4,4,0,0,1-.37-1.78,3.51,3.51,0,0,1,.81-2.46,2.94,2.94,0,0,1,2.28-.89,2.86,2.86,0,0,1,2.22.91A3.48,3.48,0,0,1,92.39,48.9Zm-4.71,0c0,1.5.55,2.24,1.66,2.24S91,50.4,91,48.9s-.56-2.22-1.66-2.22a1.41,1.41,0,0,0-1.25.57A3,3,0,0,0,87.68,48.9Z" transform="translate(0)"/><path class="c" d="M96.09,51.16a3.55,3.55,0,0,0,1-.16v1a3.08,3.08,0,0,1-.59.16,3.67,3.67,0,0,1-.75.07c-1.3,0-2-.69-2-2.06v-3.5h-.88v-.6l1-.51.47-1.37h.85v1.44H97v1H95.19v3.47a1,1,0,0,0,.25.74A.88.88,0,0,0,96.09,51.16Z" transform="translate(0)"/><path class="c" d="M103.84,48.9a3.54,3.54,0,0,1-.81,2.48,2.94,2.94,0,0,1-2.27.89,3.16,3.16,0,0,1-1.61-.41,2.73,2.73,0,0,1-1.07-1.18,4,4,0,0,1-.37-1.78,3.55,3.55,0,0,1,.8-2.46,2.94,2.94,0,0,1,2.28-.89,2.88,2.88,0,0,1,2.23.91A3.48,3.48,0,0,1,103.84,48.9Zm-4.72,0c0,1.5.56,2.24,1.66,2.24s1.64-.74,1.64-2.24-.55-2.22-1.65-2.22a1.42,1.42,0,0,0-1.26.57A3,3,0,0,0,99.12,48.9Z" transform="translate(0)"/><path class="c" d="M111.73,44.66a2.32,2.32,0,0,0-1.9.86,4.49,4.49,0,0,0,0,4.75,2.36,2.36,0,0,0,1.92.8,5.19,5.19,0,0,0,1-.1c.34-.08.7-.17,1.07-.28v1.2a6.59,6.59,0,0,1-2.29.38,3.66,3.66,0,0,1-2.89-1.14,4.78,4.78,0,0,1-1-3.26,5.37,5.37,0,0,1,.49-2.34A3.46,3.46,0,0,1,109.57,44a4.24,4.24,0,0,1,2.17-.54,5.49,5.49,0,0,1,2.43.55l-.51,1.17a6.63,6.63,0,0,0-.91-.36A3.45,3.45,0,0,0,111.73,44.66Z" transform="translate(0)"/><path class="c" d="M121,48.9a3.54,3.54,0,0,1-.81,2.48,2.93,2.93,0,0,1-2.27.89,3.12,3.12,0,0,1-1.6-.41,2.69,2.69,0,0,1-1.08-1.18,4,4,0,0,1-.37-1.78,3.51,3.51,0,0,1,.81-2.46,2.94,2.94,0,0,1,2.28-.89,2.86,2.86,0,0,1,2.22.91A3.48,3.48,0,0,1,121,48.9Zm-4.71,0c0,1.5.55,2.24,1.65,2.24s1.64-.74,1.64-2.24-.55-2.22-1.65-2.22a1.4,1.4,0,0,0-1.25.57A3,3,0,0,0,116.28,48.9Z" transform="translate(0)"/><path class="c" d="M127.74,52.15h-1.39v-4a1.78,1.78,0,0,0-.28-1.11,1,1,0,0,0-.88-.37,1.34,1.34,0,0,0-1.17.52,3.09,3.09,0,0,0-.37,1.72v3.23h-1.37V45.67h1.07l.2.85h.07a1.74,1.74,0,0,1,.78-.71,2.5,2.5,0,0,1,1.13-.26,2,2,0,0,1,2,1h.09a2,2,0,0,1,.81-.75,2.59,2.59,0,0,1,1.2-.27,2.19,2.19,0,0,1,1.69.59,2.62,2.62,0,0,1,.53,1.79v4.22h-1.38v-4a1.78,1.78,0,0,0-.29-1.11,1,1,0,0,0-.88-.37,1.38,1.38,0,0,0-1.17.5,2.57,2.57,0,0,0-.37,1.54Z" transform="translate(0)"/><path class="c" d="M136.73,52.27a2.28,2.28,0,0,1-1.91-.89h-.08c.06.55.08.88.08,1V55h-1.37V45.67h1.11c0,.12.1.41.19.87h.07a2.16,2.16,0,0,1,1.94-1,2.26,2.26,0,0,1,1.89.88,4,4,0,0,1,.67,2.47,4,4,0,0,1-.68,2.48A2.3,2.3,0,0,1,136.73,52.27Zm-.33-5.59a1.43,1.43,0,0,0-1.2.48,2.5,2.5,0,0,0-.38,1.54v.2a3,3,0,0,0,.38,1.71,1.38,1.38,0,0,0,1.22.53,1.25,1.25,0,0,0,1.11-.58,3.1,3.1,0,0,0,.38-1.67,3,3,0,0,0-.38-1.65A1.29,1.29,0,0,0,136.4,46.68Z" transform="translate(0)"/><path class="c" d="M144.68,52.15l-.28-.9h0a2.85,2.85,0,0,1-1,.81,3,3,0,0,1-1.22.21,2,2,0,0,1-1.49-.52,2,2,0,0,1-.53-1.46,1.73,1.73,0,0,1,.74-1.51,4.29,4.29,0,0,1,2.27-.55l1.12,0v-.34a1.31,1.31,0,0,0-.29-.93,1.16,1.16,0,0,0-.9-.31,3.11,3.11,0,0,0-1,.15,6.54,6.54,0,0,0-.87.34l-.45-1A4.38,4.38,0,0,1,142,45.7a5.17,5.17,0,0,1,1.19-.15,2.79,2.79,0,0,1,1.86.54,2.13,2.13,0,0,1,.63,1.7v4.36Zm-2.05-.94a1.68,1.68,0,0,0,1.2-.41,1.52,1.52,0,0,0,.46-1.18v-.56l-.84,0a2.94,2.94,0,0,0-1.41.33,1,1,0,0,0-.44.89.84.84,0,0,0,.26.67A1.08,1.08,0,0,0,142.63,51.21Z" transform="translate(0)"/><path class="c" d="M153,52.15H151.6v-4a1.74,1.74,0,0,0-.3-1.12,1.15,1.15,0,0,0-1-.37,1.5,1.5,0,0,0-1.27.52,2.82,2.82,0,0,0-.41,1.72v3.23h-1.38V45.67h1.08l.2.85h.07a1.81,1.81,0,0,1,.83-.71,2.76,2.76,0,0,1,1.19-.26A2.09,2.09,0,0,1,153,47.93Z" transform="translate(0)"/><path class="c" d="M153.62,45.67h1.5l1.32,3.68a6.44,6.44,0,0,1,.39,1.47h0c0-.21.1-.47.19-.78s.59-1.76,1.49-4.37h1.49L157.28,53a2.63,2.63,0,0,1-2.52,2,4.41,4.41,0,0,1-.89-.1V53.85a3.71,3.71,0,0,0,.71.07,1.46,1.46,0,0,0,1.4-1.16l.24-.61Z" transform="translate(0)"/></svg>